<?xml version="1.0" encoding="UTF-8" standalone="no"?>
<!DOCTYPE svg PUBLIC "-//W3C//DTD SVG 1.1//EN" "http://www.w3.org/Graphics/SVG/1.1/DTD/svg11.dtd">
<svg width="100%" height="100%" viewBox="0 0 344 424" version="1.1" xmlns="http://www.w3.org/2000/svg" xmlns:xlink="http://www.w3.org/1999/xlink" xml:space="preserve" xmlns:serif="http://www.serif.com/" style="fill-rule:evenodd;clip-rule:evenodd;stroke-linejoin:round;stroke-miterlimit:2;">
    <g id="HUD">
        <path d="M172,10.32l0,330.86c0,5.696 -4.624,10.32 -10.32,10.32l-151.36,0c-5.696,0 -10.32,-4.624 -10.32,-10.32l0,-330.86c0,-5.696 4.624,-10.32 10.32,-10.32l151.36,0c5.696,0 10.32,4.624 10.32,10.32Z" style="fill:#fff;"/>
        <path d="M172,10.32l0,330.86c0,5.696 -4.624,10.32 -10.32,10.32l-151.36,0c-5.696,0 -10.32,-4.624 -10.32,-10.32l0,-330.86c0,-5.696 4.624,-10.32 10.32,-10.32l151.36,0c5.696,0 10.32,4.624 10.32,10.32Zm-5,0c0,-2.936 -2.384,-5.32 -5.32,-5.32l-151.36,0c-2.936,0 -5.32,2.384 -5.32,5.32l0,330.86c0,2.936 2.384,5.32 5.32,5.32l151.36,0c2.936,0 5.32,-2.384 5.32,-5.32l0,-330.86Z"/>
        <path d="M344,10.32l0,226.86c0,5.696 -4.624,10.32 -10.32,10.32l-151.36,0c-5.696,0 -10.32,-4.624 -10.32,-10.32l0,-226.86c0,-5.696 4.624,-10.32 10.32,-10.32l151.36,0c5.696,0 10.32,4.624 10.32,10.32Z" style="fill:#fff;"/>
        <path d="M344,10.32l0,226.86c0,5.696 -4.624,10.32 -10.32,10.32l-151.36,0c-5.696,0 -10.32,-4.624 -10.32,-10.32l0,-226.86c0,-5.696 4.624,-10.32 10.32,-10.32l151.36,0c5.696,0 10.32,4.624 10.32,10.32Zm-5,-0c0,-2.936 -2.384,-5.32 -5.32,-5.32l-151.36,0c-2.936,0 -5.32,2.384 -5.32,5.32l0,226.86c0,2.936 2.384,5.32 5.32,5.32l151.36,0c2.936,0 5.32,-2.384 5.32,-5.32l0,-226.86Z"/>
        <g id="Other">
            <path d="M330.5,198.5l0,7.5c0,1.38 -1.12,2.5 -2.5,2.5l-40.125,0c-1.38,0 -2.5,-1.12 -2.5,-2.5l-0,-7.5c-0,-1.38 1.12,-2.5 2.5,-2.5l40.125,0c1.38,0 2.5,1.12 2.5,2.5Z" style="fill:#fff;"/>
            <path d="M330.5,198.5l0,7.5c0,1.38 -1.12,2.5 -2.5,2.5l-40.125,0c-1.38,0 -2.5,-1.12 -2.5,-2.5l-0,-7.5c-0,-1.38 1.12,-2.5 2.5,-2.5l40.125,0c1.38,0 2.5,1.12 2.5,2.5Zm-1.5,0c0,-0.552 -0.448,-1 -1,-1l-40.125,0c-0.552,0 -1,0.448 -1,1l-0,7.5c-0,0.552 0.448,1 1,1l40.125,0c0.552,0 1,-0.448 1,-1l0,-7.5Z"/>
            <path d="M330.5,213.5l0,7.5c0,1.38 -1.12,2.5 -2.5,2.5l-40.125,0c-1.38,0 -2.5,-1.12 -2.5,-2.5l-0,-7.5c-0,-1.38 1.12,-2.5 2.5,-2.5l40.125,0c1.38,0 2.5,1.12 2.5,2.5Z" style="fill:#fff;"/>
            <path d="M330.5,213.5l0,7.5c0,1.38 -1.12,2.5 -2.5,2.5l-40.125,0c-1.38,0 -2.5,-1.12 -2.5,-2.5l-0,-7.5c-0,-1.38 1.12,-2.5 2.5,-2.5l40.125,0c1.38,0 2.5,1.12 2.5,2.5Zm-1.5,0c0,-0.552 -0.448,-1 -1,-1l-40.125,0c-0.552,0 -1,0.448 -1,1l-0,7.5c-0,0.552 0.448,1 1,1l40.125,0c0.552,0 1,-0.448 1,-1l0,-7.5Z"/>
            <path d="M283,198.5l0,7.5c0,1.38 -1.12,2.5 -2.5,2.5l-40.125,0c-1.38,0 -2.5,-1.12 -2.5,-2.5l-0,-7.5c-0,-1.38 1.12,-2.5 2.5,-2.5l40.125,0c1.38,0 2.5,1.12 2.5,2.5Z" style="fill:#fff;"/>
            <path d="M283,198.5l0,7.5c0,1.38 -1.12,2.5 -2.5,2.5l-40.125,0c-1.38,0 -2.5,-1.12 -2.5,-2.5l-0,-7.5c-0,-1.38 1.12,-2.5 2.5,-2.5l40.125,0c1.38,0 2.5,1.12 2.5,2.5Zm-1.5,0c0,-0.552 -0.448,-1 -1,-1l-40.125,0c-0.552,0 -1,0.448 -1,1l-0,7.5c-0,0.552 0.448,1 1,1l40.125,0c0.552,0 1,-0.448 1,-1l0,-7.5Z"/>
            <path d="M283,213.5l0,7.5c0,1.38 -1.12,2.5 -2.5,2.5l-40.125,0c-1.38,0 -2.5,-1.12 -2.5,-2.5l-0,-7.5c-0,-1.38 1.12,-2.5 2.5,-2.5l40.125,0c1.38,0 2.5,1.12 2.5,2.5Z" style="fill:#fff;"/>
            <path d="M283,213.5l0,7.5c0,1.38 -1.12,2.5 -2.5,2.5l-40.125,0c-1.38,0 -2.5,-1.12 -2.5,-2.5l-0,-7.5c-0,-1.38 1.12,-2.5 2.5,-2.5l40.125,0c1.38,0 2.5,1.12 2.5,2.5Zm-1.5,0c0,-0.552 -0.448,-1 -1,-1l-40.125,0c-0.552,0 -1,0.448 -1,1l-0,7.5c-0,0.552 0.448,1 1,1l40.125,0c0.552,0 1,-0.448 1,-1l0,-7.5Z"/>
            <path d="M310.567,228.5l-0,7.5c-0,1.38 -1.121,2.5 -2.5,2.5l-95.259,0c-1.379,0 -2.5,-1.12 -2.5,-2.5l0,-7.5c0,-1.38 1.121,-2.5 2.5,-2.5l95.259,0c1.379,0 2.5,1.12 2.5,2.5Z" style="fill:#fff;"/>
            <path d="M310.567,228.5l-0,7.5c-0,1.38 -1.121,2.5 -2.5,2.5l-95.259,0c-1.379,0 -2.5,-1.12 -2.5,-2.5l0,-7.5c0,-1.38 1.121,-2.5 2.5,-2.5l95.259,0c1.379,0 2.5,1.12 2.5,2.5Zm-1.5,0c-0,-0.552 -0.448,-1 -1,-1l-95.259,0c-0.552,0 -1,0.448 -1,1l0,7.5c0,0.552 0.448,1 1,1l95.259,0c0.552,0 1,-0.448 1,-1l-0,-7.5Z"/>
            <path d="M235.5,198.5l0,7.5c0,1.38 -1.12,2.5 -2.5,2.5l-40.125,0c-1.38,0 -2.5,-1.12 -2.5,-2.5l0,-7.5c0,-1.38 1.12,-2.5 2.5,-2.5l40.125,0c1.38,0 2.5,1.12 2.5,2.5Z" style="fill:#fff;"/>
            <path d="M235.5,198.5l0,7.5c0,1.38 -1.12,2.5 -2.5,2.5l-40.125,0c-1.38,0 -2.5,-1.12 -2.5,-2.5l0,-7.5c0,-1.38 1.12,-2.5 2.5,-2.5l40.125,0c1.38,0 2.5,1.12 2.5,2.5Zm-1.5,0c0,-0.552 -0.448,-1 -1,-1l-40.125,0c-0.552,0 -1,0.448 -1,1l0,7.5c0,0.552 0.448,1 1,1l40.125,0c0.552,0 1,-0.448 1,-1l0,-7.5Z"/>
            <path d="M235.5,213.5l0,7.5c0,1.38 -1.12,2.5 -2.5,2.5l-40.125,0c-1.38,0 -2.5,-1.12 -2.5,-2.5l0,-7.5c0,-1.38 1.12,-2.5 2.5,-2.5l40.125,0c1.38,0 2.5,1.12 2.5,2.5Z" style="fill:#fff;"/>
            <path d="M235.5,213.5l0,7.5c0,1.38 -1.12,2.5 -2.5,2.5l-40.125,0c-1.38,0 -2.5,-1.12 -2.5,-2.5l0,-7.5c0,-1.38 1.12,-2.5 2.5,-2.5l40.125,0c1.38,0 2.5,1.12 2.5,2.5Zm-1.5,0c0,-0.552 -0.448,-1 -1,-1l-40.125,0c-0.552,0 -1,0.448 -1,1l0,7.5c0,0.552 0.448,1 1,1l40.125,0c0.552,0 1,-0.448 1,-1l0,-7.5Z"/>
            <g transform="matrix(7,0,0,7,230.003,205.017)">
            </g>
            <text x="195.872px" y="205.017px" style="font-family:'Impact';font-stretch:condensed;font-size:7px;fill:#00518c;">CHOOSE POS</text>
            <g transform="matrix(7,0,0,7,223.576,220.017)">
            </g>
            <text x="202.299px" y="220.017px" style="font-family:'Impact';font-stretch:condensed;font-size:7px;fill:#00518c;">RESYNC</text>
            <g transform="matrix(7,0,0,7,268.598,205.017)">
            </g>
            <text x="252.277px" y="205.017px" style="font-family:'Impact';font-stretch:condensed;font-size:7px;fill:#00518c;">SWAP</text>
            <g transform="matrix(7,0,0,7,275.499,220.017)">
            </g>
            <text x="245.376px" y="220.017px" style="font-family:'Impact';font-stretch:condensed;font-size:7px;fill:#00518c;">MOVE HERE</text>
            <g transform="matrix(7,0,0,7,284.628,235.017)">
            </g>
            <text x="236.247px" y="235.017px" style="font-family:'Impact';font-stretch:condensed;font-size:7px;fill:#b30059;">SELECT CATEGORY</text>
            <g transform="matrix(7,0,0,7,321.604,205.017)">
            </g>
            <text x="294.271px" y="205.017px" style="font-family:'Impact';font-stretch:condensed;font-size:7px;fill:#00518c;">TAKEOVER</text>
            <g transform="matrix(7,0,0,7,320.249,220.017)">
            </g>
            <text x="295.626px" y="220.017px" style="font-family:'Impact';font-stretch:condensed;font-size:7px;fill:#00518c;">RE-ALIGN</text>
        </g>
        <g id="PermsPCAsk">
            <g transform="matrix(8,0,0,8,21.3356,338.912)">
            </g>
            <text x="8.843px" y="338.912px" style="font-family:'Impact';font-stretch:condensed;font-size:8px;fill:#00518c;">ASK</text>
            <circle cx="30.047" cy="335.75" r="5.75" style="fill:#fff;"/>
            <path d="M30.047,330c3.173,-0 5.75,2.576 5.75,5.75c-0,3.174 -2.577,5.75 -5.75,5.75c-3.174,0 -5.75,-2.576 -5.75,-5.75c-0,-3.174 2.576,-5.75 5.75,-5.75Zm-0,1.5c-2.346,-0 -4.25,1.904 -4.25,4.25c-0,2.346 1.904,4.25 4.25,4.25c2.345,0 4.25,-1.904 4.25,-4.25c-0,-2.346 -1.905,-4.25 -4.25,-4.25Z" style="fill:#00518c;"/>
        </g>
        <g id="PermsPCStop">
            <g transform="matrix(8,0,0,8,90.0622,338.912)">
            </g>
            <text x="47.57px" y="338.912px" style="font-family:'Impact';font-stretch:condensed;font-size:8px;fill:#00518c;">STOP BUTTON</text>
            <circle cx="96.273" cy="335.75" r="5.75" style="fill:#fff;"/>
            <path d="M96.273,330c3.174,0 5.75,2.576 5.75,5.75c0,3.174 -2.576,5.75 -5.75,5.75c-3.173,0 -5.75,-2.576 -5.75,-5.75c0,-3.174 2.577,-5.75 5.75,-5.75Zm0,1.5c-2.345,0 -4.25,1.904 -4.25,4.25c0,2.346 1.905,4.25 4.25,4.25c2.346,0 4.25,-1.904 4.25,-4.25c0,-2.346 -1.904,-4.25 -4.25,-4.25Z" style="fill:#00518c;"/>
        </g>
        <g id="PermsPCAll">
            <g transform="matrix(8,0,0,8,149.758,338.912)">
            </g>
            <text x="114.25px" y="338.912px" style="font-family:'Impact';font-stretch:condensed;font-size:8px;fill:#00518c;">ACCEPT ALL</text>
            <circle cx="157.619" cy="335.75" r="5.75" style="fill:#fff;"/>
            <path d="M157.619,330c3.173,-0 5.75,2.576 5.75,5.75c-0,3.174 -2.577,5.75 -5.75,5.75c-3.174,0 -5.75,-2.576 -5.75,-5.75c-0,-3.174 2.576,-5.75 5.75,-5.75Zm-0,1.5c-2.346,-0 -4.25,1.904 -4.25,4.25c-0,2.346 1.904,4.25 4.25,4.25c2.345,0 4.25,-1.904 4.25,-4.25c-0,-2.346 -1.905,-4.25 -4.25,-4.25Z" style="fill:#00518c;"/>
        </g>
        <g transform="matrix(8,0,0,8,30.3629,327.412)">
        </g>
        <text x="8.843px" y="327.412px" style="font-family:'Impact';font-stretch:condensed;font-size:8px;fill:#00518c;">PERMS</text>
        <g transform="matrix(8,0,0,8,109.152,315.912)">
        </g>
        <text x="56.941px" y="315.912px" style="font-family:'Impact';font-stretch:condensed;font-size:8px;fill:#75b3e1;">PROJECT CUDDLE</text>
        <g transform="matrix(8,0,0,8,30.3629,292.912)">
        </g>
        <text x="8.843px" y="292.912px" style="font-family:'Impact';font-stretch:condensed;font-size:8px;fill:#b30059;">PERMS</text>
        <g transform="matrix(8,0,0,8,105.517,281.412)">
        </g>
        <text x="60.576px" y="281.412px" style="font-family:'Impact';font-stretch:condensed;font-size:8px;fill:#d87eab;">PROJECT SEX 2</text>
        <g id="PermsPS2Ask">
            <g transform="matrix(8,0,0,8,21.3356,304.412)">
            </g>
            <text x="8.843px" y="304.412px" style="font-family:'Impact';font-stretch:condensed;font-size:8px;fill:#b30059;">ASK</text>
            <circle cx="30.047" cy="301.25" r="5.75" style="fill:#fff;"/>
            <path d="M30.047,295.5c3.173,0 5.75,2.576 5.75,5.75c-0,3.174 -2.577,5.75 -5.75,5.75c-3.174,0 -5.75,-2.576 -5.75,-5.75c-0,-3.174 2.576,-5.75 5.75,-5.75Zm-0,1.5c-2.346,0 -4.25,1.904 -4.25,4.25c-0,2.346 1.904,4.25 4.25,4.25c2.345,0 4.25,-1.904 4.25,-4.25c-0,-2.346 -1.905,-4.25 -4.25,-4.25Z" style="fill:#b30059;"/>
        </g>
        <g id="PermsPS2Stop">
            <g transform="matrix(8,0,0,8,90.0622,304.412)">
            </g>
            <text x="47.57px" y="304.412px" style="font-family:'Impact';font-stretch:condensed;font-size:8px;fill:#b30059;">STOP BUTTON</text>
            <circle cx="96.273" cy="301.25" r="5.75" style="fill:#fff;"/>
            <path d="M96.273,295.5c3.174,0 5.75,2.576 5.75,5.75c0,3.174 -2.576,5.75 -5.75,5.75c-3.173,0 -5.75,-2.576 -5.75,-5.75c0,-3.174 2.577,-5.75 5.75,-5.75Zm0,1.5c-2.345,0 -4.25,1.904 -4.25,4.25c0,2.346 1.905,4.25 4.25,4.25c2.346,0 4.25,-1.904 4.25,-4.25c0,-2.346 -1.904,-4.25 -4.25,-4.25Z" style="fill:#b30059;"/>
        </g>
        <g id="PermsPS2All">
            <g transform="matrix(8,0,0,8,149.758,304.412)">
            </g>
            <text x="114.25px" y="304.412px" style="font-family:'Impact';font-stretch:condensed;font-size:8px;fill:#b30059;">ACCEPT ALL</text>
            <circle cx="157.619" cy="301.25" r="5.75" style="fill:#fff;"/>
            <path d="M157.619,295.5c3.173,0 5.75,2.576 5.75,5.75c-0,3.174 -2.577,5.75 -5.75,5.75c-3.174,0 -5.75,-2.576 -5.75,-5.75c-0,-3.174 2.576,-5.75 5.75,-5.75Zm-0,1.5c-2.346,0 -4.25,1.904 -4.25,4.25c-0,2.346 1.904,4.25 4.25,4.25c2.345,0 4.25,-1.904 4.25,-4.25c-0,-2.346 -1.905,-4.25 -4.25,-4.25Z" style="fill:#b30059;"/>
        </g>
        <g id="InBed">
            <g transform="matrix(8,0,0,8,49.2614,216.412)">
            </g>
            <text x="8.843px" y="216.412px" style="font-family:'Impact';font-stretch:condensed;font-size:8px;fill:#b30059;">IN-BED MODE</text>
            <path d="M122.433,209.8l0,6.9c0,1.269 -1.03,2.3 -2.3,2.3l-6.9,0c-1.269,0 -2.3,-1.031 -2.3,-2.3l0,-6.9c0,-1.269 1.031,-2.3 2.3,-2.3l6.9,0c1.27,0 2.3,1.031 2.3,2.3Z" style="fill:#fff;"/>
            <path d="M122.433,209.8l0,6.9c0,1.269 -1.03,2.3 -2.3,2.3l-6.9,0c-1.269,0 -2.3,-1.031 -2.3,-2.3l0,-6.9c0,-1.269 1.031,-2.3 2.3,-2.3l6.9,0c1.27,0 2.3,1.031 2.3,2.3Zm-1.5,-0c0,-0.442 -0.358,-0.8 -0.8,-0.8l-6.9,0c-0.441,0 -0.8,0.358 -0.8,0.8l0,6.9c0,0.442 0.359,0.8 0.8,0.8l6.9,0c0.442,0 0.8,-0.358 0.8,-0.8l0,-6.9Z" style="fill:#b30059;"/>
        </g>
        <g id="FreezeArousal">
            <g transform="matrix(8,0,0,8,59.2535,230.412)">
            </g>
            <text x="8.843px" y="230.412px" style="font-family:'Impact';font-stretch:condensed;font-size:8px;fill:#b30059;">FREEZE AROUSAL</text>
            <path d="M122.433,223.8l0,6.9c0,1.269 -1.03,2.3 -2.3,2.3l-6.9,0c-1.269,0 -2.3,-1.031 -2.3,-2.3l0,-6.9c0,-1.269 1.031,-2.3 2.3,-2.3l6.9,0c1.27,0 2.3,1.031 2.3,2.3Z" style="fill:#fff;"/>
            <path d="M122.433,223.8l0,6.9c0,1.269 -1.03,2.3 -2.3,2.3l-6.9,0c-1.269,0 -2.3,-1.031 -2.3,-2.3l0,-6.9c0,-1.269 1.031,-2.3 2.3,-2.3l6.9,0c1.27,0 2.3,1.031 2.3,2.3Zm-1.5,-0c0,-0.442 -0.358,-0.8 -0.8,-0.8l-6.9,0c-0.441,0 -0.8,0.358 -0.8,0.8l0,6.9c0,0.442 0.359,0.8 0.8,0.8l6.9,0c0.442,0 0.8,-0.358 0.8,-0.8l0,-6.9Z" style="fill:#b30059;"/>
        </g>
        <g id="SoundOrgasm">
            <g transform="matrix(8,0,0,8,40.0035,255.912)">
            </g>
            <text x="8.843px" y="255.912px" style="font-family:'Impact';font-stretch:condensed;font-size:8px;fill:#b30059;">ORGASMS</text>
            <path d="M122.433,249.3l0,6.9c0,1.269 -1.03,2.3 -2.3,2.3l-6.9,0c-1.269,0 -2.3,-1.031 -2.3,-2.3l0,-6.9c0,-1.269 1.031,-2.3 2.3,-2.3l6.9,0c1.27,0 2.3,1.031 2.3,2.3Z" style="fill:#fff;"/>
            <path d="M122.433,249.3l0,6.9c0,1.269 -1.03,2.3 -2.3,2.3l-6.9,0c-1.269,0 -2.3,-1.031 -2.3,-2.3l0,-6.9c0,-1.269 1.031,-2.3 2.3,-2.3l6.9,0c1.27,0 2.3,1.031 2.3,2.3Zm-1.5,-0c0,-0.442 -0.358,-0.8 -0.8,-0.8l-6.9,0c-0.441,0 -0.8,0.358 -0.8,0.8l0,6.9c0,0.442 0.359,0.8 0.8,0.8l6.9,0c0.442,0 0.8,-0.358 0.8,-0.8l0,-6.9Z" style="fill:#b30059;"/>
        </g>
        <g id="SoundWet">
            <g transform="matrix(8,0,0,8,45.3121,269.912)">
            </g>
            <text x="8.843px" y="269.912px" style="font-family:'Impact';font-stretch:condensed;font-size:8px;fill:#b30059;">WET SOUND</text>
            <path d="M122.433,263.3l0,6.9c0,1.269 -1.03,2.3 -2.3,2.3l-6.9,0c-1.269,0 -2.3,-1.031 -2.3,-2.3l0,-6.9c0,-1.269 1.031,-2.3 2.3,-2.3l6.9,0c1.27,0 2.3,1.031 2.3,2.3Z" style="fill:#fff;"/>
            <path d="M122.433,263.3l0,6.9c0,1.269 -1.03,2.3 -2.3,2.3l-6.9,0c-1.269,0 -2.3,-1.031 -2.3,-2.3l0,-6.9c0,-1.269 1.031,-2.3 2.3,-2.3l6.9,0c1.27,0 2.3,1.031 2.3,2.3Zm-1.5,-0c0,-0.442 -0.358,-0.8 -0.8,-0.8l-6.9,0c-0.441,0 -0.8,0.358 -0.8,0.8l0,6.9c0,0.442 0.359,0.8 0.8,0.8l6.9,0c0.442,0 0.8,-0.358 0.8,-0.8l0,-6.9Z" style="fill:#b30059;"/>
        </g>
        <g transform="matrix(8,0,0,8,111.324,244.412)">
        </g>
        <text x="54.769px" y="244.412px" style="font-family:'Impact';font-stretch:condensed;font-size:8px;fill:#b30059;">PROJECT AROUSAL</text>
        <g id="Adjustment">
            <g transform="matrix(8,0,0,8,248.084,32.9121)">
            </g>
            <text x="182.705px" y="32.912px" style="font-family:'Impact';font-stretch:condensed;font-size:8px;fill:#00518c;">COUPLE ADJUSTMENT</text>
            <path d="M296.295,26.3l-0,6.9c-0,1.269 -1.031,2.3 -2.3,2.3l-6.9,0c-1.269,0 -2.3,-1.031 -2.3,-2.3l-0,-6.9c-0,-1.269 1.031,-2.3 2.3,-2.3l6.9,0c1.269,0 2.3,1.031 2.3,2.3Z" style="fill:#fff;"/>
            <path d="M296.295,26.3l-0,6.9c-0,1.269 -1.031,2.3 -2.3,2.3l-6.9,0c-1.269,0 -2.3,-1.031 -2.3,-2.3l-0,-6.9c-0,-1.269 1.031,-2.3 2.3,-2.3l6.9,0c1.269,0 2.3,1.031 2.3,2.3Zm-1.5,0c-0,-0.442 -0.358,-0.8 -0.8,-0.8l-6.9,0c-0.442,0 -0.8,0.358 -0.8,0.8l-0,6.9c-0,0.442 0.358,0.8 0.8,0.8l6.9,0c0.442,0 0.8,-0.358 0.8,-0.8l-0,-6.9Z" style="fill:#00518c;"/>
        </g>
        <g id="Switch">
            <g transform="matrix(8,0,0,8,261.592,46.9121)">
            </g>
            <text x="182.705px" y="46.912px" style="font-family:'Impact';font-stretch:condensed;font-size:8px;fill:#00518c;">FORCE POSITION SWITCH</text>
            <path d="M296.295,40.3l-0,6.9c-0,1.269 -1.031,2.3 -2.3,2.3l-6.9,0c-1.269,0 -2.3,-1.031 -2.3,-2.3l-0,-6.9c-0,-1.269 1.031,-2.3 2.3,-2.3l6.9,0c1.269,0 2.3,1.031 2.3,2.3Z" style="fill:#fff;"/>
            <path d="M296.295,40.3l-0,6.9c-0,1.269 -1.031,2.3 -2.3,2.3l-6.9,0c-1.269,0 -2.3,-1.031 -2.3,-2.3l-0,-6.9c-0,-1.269 1.031,-2.3 2.3,-2.3l6.9,0c1.269,0 2.3,1.031 2.3,2.3Zm-1.5,0c-0,-0.442 -0.358,-0.8 -0.8,-0.8l-6.9,0c-0.442,0 -0.8,0.358 -0.8,0.8l-0,6.9c-0,0.442 0.358,0.8 0.8,0.8l6.9,0c0.442,0 0.8,-0.358 0.8,-0.8l-0,-6.9Z" style="fill:#00518c;"/>
        </g>
        <g id="Control">
            <g transform="matrix(8,0,0,8,235.59,18.9121)">
            </g>
            <text x="207.047px" y="18.912px" style="font-family:'Impact';font-stretch:condensed;font-size:8px;fill:#b30059;">CONTROL</text>
            <path d="M248,15.75c0,3.174 -2.576,5.75 -5.75,5.75c-3.174,0 -5.75,-2.576 -5.75,-5.75c-0,-3.174 2.576,-5.75 5.75,-5.75c3.174,0 5.75,2.576 5.75,5.75Z" style="fill:#fff;"/>
            <path d="M248,15.75c0,3.174 -2.576,5.75 -5.75,5.75c-3.174,0 -5.75,-2.576 -5.75,-5.75c-0,-3.174 2.576,-5.75 5.75,-5.75c3.174,-0 5.75,2.576 5.75,5.75Zm-1.5,0c0,-2.346 -1.904,-4.25 -4.25,-4.25c-2.346,-0 -4.25,1.904 -4.25,4.25c-0,2.346 1.904,4.25 4.25,4.25c2.346,0 4.25,-1.904 4.25,-4.25Z" style="fill:#b30059;"/>
        </g>
        <g id="Adjust">
            <g transform="matrix(8,0,0,8,297.332,18.9121)">
            </g>
            <text x="274px" y="18.912px" style="font-family:'Impact';font-stretch:condensed;font-size:8px;fill:#00518c;">ADJUST</text>
            <path id="Adjust_1" d="M308.953,15.75c0,3.174 -2.576,5.75 -5.75,5.75c-3.173,0 -5.75,-2.576 -5.75,-5.75c0,-3.174 2.577,-5.75 5.75,-5.75c3.174,0 5.75,2.576 5.75,5.75Z" style="fill:#fff;"/>
            <path d="M308.953,15.75c0,3.174 -2.576,5.75 -5.75,5.75c-3.173,0 -5.75,-2.576 -5.75,-5.75c0,-3.174 2.577,-5.75 5.75,-5.75c3.174,-0 5.75,2.576 5.75,5.75Zm-1.5,0c0,-2.346 -1.904,-4.25 -4.25,-4.25c-2.345,-0 -4.25,1.904 -4.25,4.25c0,2.346 1.905,4.25 4.25,4.25c2.346,0 4.25,-1.904 4.25,-4.25Z" style="fill:#00518c;"/>
        </g>
        <g id="W">
            <path d="M207.75,58l0,10.5c0,1.932 -1.568,3.5 -3.5,3.5l-10.5,0c-1.932,0 -3.5,-1.568 -3.5,-3.5l0,-10.5c0,-1.932 1.568,-3.5 3.5,-3.5l10.5,0c1.932,0 3.5,1.568 3.5,3.5Z" style="fill:#fff;"/>
            <path d="M207.75,58l0,10.5c0,1.932 -1.568,3.5 -3.5,3.5l-10.5,0c-1.932,0 -3.5,-1.568 -3.5,-3.5l0,-10.5c0,-1.932 1.568,-3.5 3.5,-3.5l10.5,0c1.932,0 3.5,1.568 3.5,3.5Zm-1.5,0c0,-1.104 -0.896,-2 -2,-2l-10.5,0c-1.104,0 -2,0.896 -2,2l0,10.5c0,1.104 0.896,2 2,2l10.5,0c1.104,0 2,-0.896 2,-2l0,-10.5Z" style="fill:#b30059;"/>
            <g transform="matrix(12,0,0,12,203.887,67.9932)">
            </g>
            <text x="194.113px" y="67.993px" style="font-family:'Impact';font-stretch:condensed;font-size:12px;fill:#b30059;">W</text>
        </g>
        <g id="S">
            <path d="M207.75,78l0,10.5c0,1.932 -1.568,3.5 -3.5,3.5l-10.5,0c-1.932,0 -3.5,-1.568 -3.5,-3.5l0,-10.5c0,-1.932 1.568,-3.5 3.5,-3.5l10.5,0c1.932,0 3.5,1.568 3.5,3.5Z" style="fill:#fff;"/>
            <path d="M207.75,78l0,10.5c0,1.932 -1.568,3.5 -3.5,3.5l-10.5,0c-1.932,0 -3.5,-1.568 -3.5,-3.5l0,-10.5c0,-1.932 1.568,-3.5 3.5,-3.5l10.5,0c1.932,0 3.5,1.568 3.5,3.5Zm-1.5,0c0,-1.104 -0.896,-2 -2,-2l-10.5,0c-1.104,0 -2,0.896 -2,2l0,10.5c0,1.104 0.896,2 2,2l10.5,0c1.104,0 2,-0.896 2,-2l0,-10.5Z" style="fill:#b30059;"/>
            <g transform="matrix(12,0,0,12,202.103,87.9932)">
            </g>
            <text x="195.897px" y="87.993px" style="font-family:'Impact';font-stretch:condensed;font-size:12px;fill:#b30059;">S</text>
        </g>
        <g id="E">
            <path d="M207.75,118l0,10.5c0,1.932 -1.568,3.5 -3.5,3.5l-10.5,0c-1.932,0 -3.5,-1.568 -3.5,-3.5l0,-10.5c0,-1.932 1.568,-3.5 3.5,-3.5l10.5,0c1.932,0 3.5,1.568 3.5,3.5Z" style="fill:#fff;"/>
            <path d="M207.75,118l0,10.5c0,1.932 -1.568,3.5 -3.5,3.5l-10.5,0c-1.932,0 -3.5,-1.568 -3.5,-3.5l0,-10.5c0,-1.932 1.568,-3.5 3.5,-3.5l10.5,0c1.932,0 3.5,1.568 3.5,3.5Zm-1.5,0c0,-1.104 -0.896,-2 -2,-2l-10.5,0c-1.104,0 -2,0.896 -2,2l0,10.5c0,1.104 0.896,2 2,2l10.5,0c1.104,0 2,-0.896 2,-2l0,-10.5Z" style="fill:#b30059;"/>
            <g transform="matrix(12,0,0,12,201.493,127.993)">
            </g>
            <text x="196.507px" y="127.993px" style="font-family:'Impact';font-stretch:condensed;font-size:12px;fill:#b30059;">E</text>
        </g>
        <g id="C">
            <path d="M207.75,138l0,10.5c0,1.932 -1.568,3.5 -3.5,3.5l-10.5,0c-1.932,0 -3.5,-1.568 -3.5,-3.5l0,-10.5c0,-1.932 1.568,-3.5 3.5,-3.5l10.5,0c1.932,0 3.5,1.568 3.5,3.5Z" style="fill:#fff;"/>
            <path d="M207.75,138l0,10.5c0,1.932 -1.568,3.5 -3.5,3.5l-10.5,0c-1.932,0 -3.5,-1.568 -3.5,-3.5l0,-10.5c0,-1.932 1.568,-3.5 3.5,-3.5l10.5,0c1.932,0 3.5,1.568 3.5,3.5Zm-1.5,0c0,-1.104 -0.896,-2 -2,-2l-10.5,0c-1.104,0 -2,0.896 -2,2l0,10.5c0,1.104 0.896,2 2,2l10.5,0c1.104,0 2,-0.896 2,-2l0,-10.5Z" style="fill:#b30059;"/>
            <g transform="matrix(12,0,0,12,202.322,147.993)">
            </g>
            <text x="195.678px" y="147.993px" style="font-family:'Impact';font-stretch:condensed;font-size:12px;fill:#b30059;">C</text>
        </g>
        <g id="Click">
            <path d="M207.75,158l0,10.5c0,1.932 -1.568,3.5 -3.5,3.5l-10.5,0c-1.932,0 -3.5,-1.568 -3.5,-3.5l0,-10.5c0,-1.932 1.568,-3.5 3.5,-3.5l10.5,0c1.932,0 3.5,1.568 3.5,3.5Z" style="fill:#fff;"/>
            <path d="M207.75,158l0,10.5c0,1.932 -1.568,3.5 -3.5,3.5l-10.5,0c-1.932,0 -3.5,-1.568 -3.5,-3.5l0,-10.5c0,-1.932 1.568,-3.5 3.5,-3.5l10.5,0c1.932,0 3.5,1.568 3.5,3.5Zm-1.5,0c0,-1.104 -0.896,-2 -2,-2l-10.5,0c-1.104,0 -2,0.896 -2,2l0,10.5c0,1.104 0.896,2 2,2l10.5,0c1.104,0 2,-0.896 2,-2l0,-10.5Z" style="fill:#b30059;"/>
            <path d="M194.313,161.688l4.296,-0l0,-4.688l-0.39,0c-2.158,0 -3.906,1.748 -3.906,3.906l-0,0.782Zm-0,0.781l-0,3.125c-0,2.158 1.748,3.906 3.906,3.906l1.562,0c2.158,0 3.907,-1.748 3.907,-3.906l-0,-3.125l-9.375,-0Zm9.375,-0.781l-0,-0.782c-0,-2.158 -1.749,-3.906 -3.907,-3.906l-0.39,0l-0,4.688l4.297,-0Z" style="fill:#b30059;fill-rule:nonzero;"/>
        </g>
        <g id="RL">
            <path d="M207.75,178l0,10.5c0,1.932 -1.568,3.5 -3.5,3.5l-10.5,0c-1.932,0 -3.5,-1.568 -3.5,-3.5l0,-10.5c0,-1.932 1.568,-3.5 3.5,-3.5l10.5,0c1.932,0 3.5,1.568 3.5,3.5Z" style="fill:#fff;"/>
            <path d="M207.75,178l0,10.5c0,1.932 -1.568,3.5 -3.5,3.5l-10.5,0c-1.932,0 -3.5,-1.568 -3.5,-3.5l0,-10.5c0,-1.932 1.568,-3.5 3.5,-3.5l10.5,0c1.932,0 3.5,1.568 3.5,3.5Zm-1.5,0c0,-1.104 -0.896,-2 -2,-2l-10.5,0c-1.104,0 -2,0.896 -2,2l0,10.5c0,1.104 0.896,2 2,2l10.5,0c1.104,0 2,-0.896 2,-2l0,-10.5Z" style="fill:#b30059;"/>
            <path d="M202.486,180.612l-1.382,0c-0.487,0 -0.88,0.393 -0.88,0.879c0,0.487 0.393,0.88 0.88,0.88l3.517,-0c0.486,-0 0.879,-0.393 0.879,-0.88l-0,-3.517c-0,-0.486 -0.393,-0.879 -0.879,-0.879c-0.487,0 -0.88,0.393 -0.88,0.879l0,1.407l-0.483,-0.483c-2.404,-2.405 -6.301,-2.405 -8.705,-0c-2.404,2.404 -2.404,6.3 0,8.704c2.404,2.405 6.301,2.405 8.705,0c0.343,-0.343 0.343,-0.901 -0,-1.244c-0.344,-0.344 -0.901,-0.344 -1.245,-0c-1.717,1.717 -4.501,1.717 -6.218,-0c-1.717,-1.718 -1.717,-4.501 0,-6.218c1.717,-1.718 4.501,-1.718 6.218,-0l0.473,0.472Z" style="fill:#b30059;fill-rule:nonzero;"/>
        </g>
        <g id="RR">
            <path d="M227.75,178l0,10.5c0,1.932 -1.568,3.5 -3.5,3.5l-10.5,0c-1.932,0 -3.5,-1.568 -3.5,-3.5l0,-10.5c0,-1.932 1.568,-3.5 3.5,-3.5l10.5,0c1.932,0 3.5,1.568 3.5,3.5Z" style="fill:#fff;"/>
            <path d="M227.75,178l0,10.5c0,1.932 -1.568,3.5 -3.5,3.5l-10.5,0c-1.932,0 -3.5,-1.568 -3.5,-3.5l0,-10.5c0,-1.932 1.568,-3.5 3.5,-3.5l10.5,0c1.932,0 3.5,1.568 3.5,3.5Zm-1.5,0c0,-1.104 -0.896,-2 -2,-2l-10.5,0c-1.104,0 -2,0.896 -2,2l0,10.5c0,1.104 0.896,2 2,2l10.5,0c1.104,0 2,-0.896 2,-2l0,-10.5Z" style="fill:#b30059;"/>
            <path d="M215.639,180.612l1.382,0c0.487,0 0.88,0.393 0.88,0.879c-0,0.487 -0.393,0.88 -0.88,0.88l-3.517,-0c-0.486,-0 -0.879,-0.393 -0.879,-0.88l0,-3.517c0,-0.486 0.393,-0.879 0.879,-0.879c0.487,0 0.88,0.393 0.88,0.879l-0,1.407l0.483,-0.483c2.404,-2.405 6.301,-2.405 8.705,-0c2.404,2.404 2.404,6.3 -0,8.704c-2.404,2.405 -6.301,2.405 -8.705,0c-0.343,-0.343 -0.343,-0.901 0,-1.244c0.344,-0.344 0.901,-0.344 1.245,-0c1.717,1.717 4.501,1.717 6.218,-0c1.717,-1.718 1.717,-4.501 -0,-6.218c-1.717,-1.718 -4.501,-1.718 -6.218,-0l-0.473,0.472Z" style="fill:#b30059;fill-rule:nonzero;"/>
        </g>
        <g id="A">
            <path d="M197.5,98l0,10.5c0,1.932 -1.568,3.5 -3.5,3.5l-10.5,0c-1.932,0 -3.5,-1.568 -3.5,-3.5l0,-10.5c0,-1.932 1.568,-3.5 3.5,-3.5l10.5,0c1.932,0 3.5,1.568 3.5,3.5Z" style="fill:#fff;"/>
            <path d="M197.5,98l0,10.5c0,1.932 -1.568,3.5 -3.5,3.5l-10.5,0c-1.932,0 -3.5,-1.568 -3.5,-3.5l0,-10.5c0,-1.932 1.568,-3.5 3.5,-3.5l10.5,0c1.932,0 3.5,1.568 3.5,3.5Zm-1.5,0c0,-1.104 -0.896,-2 -2,-2l-10.5,0c-1.104,0 -2,0.896 -2,2l0,10.5c0,1.104 0.896,2 2,2l10.5,0c1.104,0 2,-0.896 2,-2l0,-10.5Z" style="fill:#b30059;"/>
            <g transform="matrix(12,0,0,12,191.797,107.993)">
            </g>
            <text x="185.703px" y="107.993px" style="font-family:'Impact';font-stretch:condensed;font-size:12px;fill:#b30059;">A</text>
        </g>
        <g id="D">
            <path d="M217.5,98l0,10.5c0,1.932 -1.568,3.5 -3.5,3.5l-10.5,0c-1.932,0 -3.5,-1.568 -3.5,-3.5l0,-10.5c0,-1.932 1.568,-3.5 3.5,-3.5l10.5,0c1.932,0 3.5,1.568 3.5,3.5Z" style="fill:#fff;"/>
            <path d="M217.5,98l0,10.5c0,1.932 -1.568,3.5 -3.5,3.5l-10.5,0c-1.932,0 -3.5,-1.568 -3.5,-3.5l0,-10.5c0,-1.932 1.568,-3.5 3.5,-3.5l10.5,0c1.932,0 3.5,1.568 3.5,3.5Zm-1.5,0c0,-1.104 -0.896,-2 -2,-2l-10.5,0c-1.104,0 -2,0.896 -2,2l0,10.5c0,1.104 0.896,2 2,2l10.5,0c1.104,0 2,-0.896 2,-2l0,-10.5Z" style="fill:#b30059;"/>
            <g transform="matrix(12,0,0,12,212.066,107.993)">
            </g>
            <text x="205.434px" y="107.993px" style="font-family:'Impact';font-stretch:condensed;font-size:12px;fill:#b30059;">D</text>
        </g>
        <g id="CONTROLS">
            <g transform="matrix(0.5,0,0,0.5,209.547,-81)">
                <text x="6px" y="314.034px" style="font-family:'Impact';font-stretch:condensed;font-size:14px;fill:#b30059;">SWITCH CATEGORY /</text>
                <g transform="matrix(14,0,0,14,231.367,314.034)">
                </g>
                <text x="119.483px" y="314.034px" style="font-family:'Impact';font-stretch:condensed;font-size:14px;fill:#00518c;">FORWARD AND BACK</text>
            </g>
            <g transform="matrix(0.5,0,0,0.5,219.547,-51)">
                <text x="6px" y="314.034px" style="font-family:'Impact';font-stretch:condensed;font-size:14px;fill:#b30059;">SWITCH POSITION /</text>
                <g transform="matrix(14,0,0,14,199.307,314.034)">
                </g>
                <text x="115.259px" y="314.034px" style="font-family:'Impact';font-stretch:condensed;font-size:14px;fill:#00518c;">LEFT AND RIGHT</text>
            </g>
            <g transform="matrix(7,0,0,7,324.709,145.517)">
            </g>
            <text x="286.5px" y="145.517px" style="font-family:'Impact';font-stretch:condensed;font-size:7px;fill:#00518c;">UP AND DOWN</text>
            <g transform="matrix(7,0,0,7,252.891,185.517)">
            </g>
            <text x="233.047px" y="185.517px" style="font-family:'Impact';font-stretch:condensed;font-size:7px;fill:#00518c;">ROTATE</text>
            <g transform="matrix(0.5,0,0,0.5,205.047,-21)">
                <text x="14.828px" y="316.67px" style="font-family:'Impact';font-stretch:condensed;font-size:14px;fill:#b30059;">PROJECT CUDDLE ACTIONS</text>
                <text x="74.359px" y="333.034px" style="font-family:'Impact';font-stretch:condensed;font-size:14px;fill:#b30059;">OR</text>
                <g transform="matrix(14,0,0,14,154.988,349.397)">
                </g>
                <text x="8.918px" y="349.397px" style="font-family:'Impact';font-stretch:condensed;font-size:14px;fill:#b30059;">PROJECT SEX AUTO THRUST</text>
            </g>
        </g>
        <g id="Climax_1">
            <circle cx="22.797" cy="143.5" r="14" style="fill:#ebebeb;"/>
            <path d="M22.797,129.5c7.727,0 14,6.273 14,14c-0,7.727 -6.273,14 -14,14c-7.727,0 -14,-6.273 -14,-14c-0,-7.727 6.273,-14 14,-14Zm-0,2.5c-6.347,0 -11.5,5.153 -11.5,11.5c-0,6.347 5.153,11.5 11.5,11.5c6.347,0 11.5,-5.153 11.5,-11.5c-0,-6.347 -5.153,-11.5 -11.5,-11.5Z" style="fill:#b30059;"/>
            <path d="M20.905,143.795c0,0 -1.41,-1.697 -2.288,-2.754c-0.176,-0.212 -0.433,-0.34 -0.707,-0.352c-0.275,-0.013 -0.542,0.091 -0.737,0.285c-1.148,1.148 -3.194,3.194 -3.194,3.194c-0.423,0.423 -0.423,1.243 0,1.666c0.423,0.423 1.244,0.423 1.667,0l2.285,-2.285l2.081,2.603l5.693,-0c0.539,-0 0.975,-0.437 0.976,-0.976c-0,-0.132 -0,-0.269 -0,-0.401c-0,-0.541 -0.439,-0.98 -0.98,-0.98c-1.648,0 -4.796,0 -4.796,0Zm9.184,-1.016c2.084,-0 2.393,3.083 0.354,3.499c-1.088,0.222 -2.121,-0.654 -2.121,-1.732c-0,-0.949 0.818,-1.767 1.767,-1.767Z" style="fill:#b30059;"/>
        </g>
        <g id="Climax_2">
            <circle cx="54.797" cy="143.5" r="14" style="fill:#ebebeb;"/>
            <path d="M54.797,129.5c7.727,0 14,6.273 14,14c-0,7.727 -6.273,14 -14,14c-7.727,0 -14,-6.273 -14,-14c-0,-7.727 6.273,-14 14,-14Zm-0,2.5c-6.347,0 -11.5,5.153 -11.5,11.5c-0,6.347 5.153,11.5 11.5,11.5c6.347,0 11.5,-5.153 11.5,-11.5c-0,-6.347 -5.153,-11.5 -11.5,-11.5Z" style="fill:#b30059;"/>
            <path d="M52.909,144.173l0,3.227c0,0.26 -0.103,0.508 -0.286,0.692c-0.184,0.183 -0.432,0.286 -0.692,0.286c-1.602,0 -4.611,0 -4.611,0c-0.598,0 -1.178,-0.58 -1.178,-1.178c-0,-0.598 0.58,-1.178 1.178,-1.178l3.232,-0l0,-3.212c0,-0.549 0.445,-0.994 0.994,-0.994c1.75,0 5.363,0 7.134,0c0.565,0 1.024,0.459 1.024,1.024c-0,1.613 -0,4.565 -0,4.565c-0,0.598 -0.581,1.179 -1.179,1.179c-0.598,-0 -1.178,-0.581 -1.178,-1.179l0,-3.232l-4.438,-0Zm9.55,-4.857c2.084,0 2.393,3.083 0.354,3.499c-1.088,0.222 -2.121,-0.654 -2.121,-1.731c-0,-0.95 0.818,-1.768 1.767,-1.768Z" style="fill:#b30059;"/>
        </g>
        <g id="Climax_3">
            <circle cx="86.797" cy="143.5" r="14" style="fill:#ebebeb;"/>
            <path d="M86.797,129.5c7.727,0 14,6.273 14,14c-0,7.727 -6.273,14 -14,14c-7.727,0 -14,-6.273 -14,-14c-0,-7.727 6.273,-14 14,-14Zm-0,2.5c-6.347,0 -11.5,5.153 -11.5,11.5c-0,6.347 5.153,11.5 11.5,11.5c6.347,0 11.5,-5.153 11.5,-11.5c-0,-6.347 -5.153,-11.5 -11.5,-11.5Z" style="fill:#b30059;"/>
            <path d="M85.027,135.841c0,-0.969 0.798,-1.767 1.768,-1.767c0.969,-0 1.767,0.798 1.767,1.767c0,0.97 -0.798,1.768 -1.767,1.768c-0.97,-0 -1.768,-0.798 -1.768,-1.768Zm1.473,11.194l0,4.713c0,0.652 -0.526,1.178 -1.178,1.178c-0.652,0 -1.178,-0.526 -1.178,-1.178l-0,-8.215l-1.053,1.753c-0.335,0.556 -1.061,0.736 -1.617,0.401c-0.556,-0.335 -0.736,-1.06 -0.401,-1.616l2.147,-3.572c0.64,-1.064 1.789,-1.716 3.03,-1.716l1.093,0c1.241,0 2.39,0.652 3.031,1.716l2.147,3.572c0.335,0.556 0.154,1.281 -0.402,1.616c-0.556,0.335 -1.281,0.155 -1.616,-0.401l-1.057,-1.753l-0,8.215c-0,0.652 -0.527,1.178 -1.178,1.178c-0.652,0 -1.179,-0.526 -1.179,-1.178l0,-4.713l-0.589,-0Z" style="fill:#b30059;fill-rule:nonzero;"/>
        </g>
        <g id="SuperClimax_1">
            <circle cx="22.797" cy="188.5" r="14" style="fill:#ebebeb;"/>
            <path d="M22.797,174.5c7.727,0 14,6.273 14,14c-0,7.727 -6.273,14 -14,14c-7.727,0 -14,-6.273 -14,-14c-0,-7.727 6.273,-14 14,-14Zm-0,2.5c-6.347,0 -11.5,5.153 -11.5,11.5c-0,6.347 5.153,11.5 11.5,11.5c6.347,0 11.5,-5.153 11.5,-11.5c-0,-6.347 -5.153,-11.5 -11.5,-11.5Z" style="fill:#b30059;"/>
            <path d="M20.905,188.795c0,0 -1.41,-1.697 -2.288,-2.754c-0.176,-0.212 -0.433,-0.34 -0.707,-0.352c-0.275,-0.013 -0.542,0.091 -0.737,0.285c-1.148,1.148 -3.194,3.194 -3.194,3.194c-0.423,0.423 -0.423,1.243 0,1.666c0.423,0.423 1.244,0.423 1.667,0l2.285,-2.285l2.081,2.603l5.693,-0c0.539,-0 0.975,-0.437 0.976,-0.976c-0,-0.132 -0,-0.269 -0,-0.401c-0,-0.541 -0.439,-0.98 -0.98,-0.98c-1.648,0 -4.796,0 -4.796,0Zm9.184,-1.016c2.084,-0 2.393,3.083 0.354,3.499c-1.088,0.222 -2.121,-0.654 -2.121,-1.732c-0,-0.949 0.818,-1.767 1.767,-1.767Z" style="fill:#b30059;"/>
        </g>
        <g id="SuperClimax_2">
            <circle cx="54.797" cy="188.5" r="14" style="fill:#ebebeb;"/>
            <path d="M54.797,174.5c7.727,0 14,6.273 14,14c-0,7.727 -6.273,14 -14,14c-7.727,0 -14,-6.273 -14,-14c-0,-7.727 6.273,-14 14,-14Zm-0,2.5c-6.347,0 -11.5,5.153 -11.5,11.5c-0,6.347 5.153,11.5 11.5,11.5c6.347,0 11.5,-5.153 11.5,-11.5c-0,-6.347 -5.153,-11.5 -11.5,-11.5Z" style="fill:#b30059;"/>
            <path d="M52.909,189.173l0,3.227c0,0.26 -0.103,0.508 -0.286,0.692c-0.184,0.183 -0.432,0.286 -0.692,0.286c-1.602,0 -4.611,0 -4.611,0c-0.598,0 -1.178,-0.58 -1.178,-1.178c-0,-0.598 0.58,-1.178 1.178,-1.178l3.232,-0l0,-3.212c0,-0.549 0.445,-0.994 0.994,-0.994c1.75,0 5.363,0 7.134,0c0.565,0 1.024,0.459 1.024,1.024c-0,1.613 -0,4.565 -0,4.565c-0,0.598 -0.581,1.179 -1.179,1.179c-0.598,-0 -1.178,-0.581 -1.178,-1.179l0,-3.232l-4.438,-0Zm9.55,-4.857c2.084,0 2.393,3.083 0.354,3.499c-1.088,0.222 -2.121,-0.654 -2.121,-1.731c-0,-0.95 0.818,-1.768 1.767,-1.768Z" style="fill:#b30059;"/>
        </g>
        <g id="SuperClimax_3">
            <circle cx="86.797" cy="188.5" r="14" style="fill:#ebebeb;"/>
            <path d="M86.797,174.5c7.727,0 14,6.273 14,14c-0,7.727 -6.273,14 -14,14c-7.727,0 -14,-6.273 -14,-14c-0,-7.727 6.273,-14 14,-14Zm-0,2.5c-6.347,0 -11.5,5.153 -11.5,11.5c-0,6.347 5.153,11.5 11.5,11.5c6.347,0 11.5,-5.153 11.5,-11.5c-0,-6.347 -5.153,-11.5 -11.5,-11.5Z" style="fill:#b30059;"/>
            <path d="M85.027,180.841c0,-0.969 0.798,-1.767 1.768,-1.767c0.969,-0 1.767,0.798 1.767,1.767c0,0.97 -0.798,1.768 -1.767,1.768c-0.97,-0 -1.768,-0.798 -1.768,-1.768Zm1.473,11.194l0,4.713c0,0.652 -0.526,1.178 -1.178,1.178c-0.652,0 -1.178,-0.526 -1.178,-1.178l-0,-8.215l-1.053,1.753c-0.335,0.556 -1.061,0.736 -1.617,0.401c-0.556,-0.335 -0.736,-1.06 -0.401,-1.616l2.147,-3.572c0.64,-1.064 1.789,-1.716 3.03,-1.716l1.093,0c1.241,0 2.39,0.652 3.031,1.716l2.147,3.572c0.335,0.556 0.154,1.281 -0.402,1.616c-0.556,0.335 -1.281,0.155 -1.616,-0.401l-1.057,-1.753l-0,8.215c-0,0.652 -0.527,1.178 -1.178,1.178c-0.652,0 -1.179,-0.526 -1.179,-1.178l0,-4.713l-0.589,-0Z" style="fill:#b30059;fill-rule:nonzero;"/>
        </g>
        <g id="VolumeClimaxDown">
            <path d="M116.522,177.75l-8.225,-10.575l16.45,0l-8.225,10.575Z" style="fill:#ebebeb;"/>
            <path d="M116.522,177.75l-8.225,-10.575l16.45,-0l-8.225,10.575Zm-0,-2.443c-0,-0 5.158,-6.632 5.158,-6.632l-10.316,0l5.158,6.632Z" style="fill:#b30059;"/>
        </g>
        <g id="VolumeClimaxUp">
            <path d="M116.522,154.25l8.225,10.575l-16.45,0l8.225,-10.575Z" style="fill:#ebebeb;"/>
            <path d="M116.522,154.25l8.225,10.575l-16.45,0l8.225,-10.575Zm-0,2.443c-0,0 -5.158,6.632 -5.158,6.632l10.316,-0l-5.158,-6.632Z" style="fill:#b30059;"/>
        </g>
        <g transform="matrix(9,0,0,9,159.832,169.057)">
        </g>
        <text x="131.668px" y="169.057px" style="font-family:'Impact';font-stretch:condensed;font-size:9px;fill:#b30059;">VOLUME</text>
        <g transform="matrix(8,0,0,8,94.8164,122.412)">
        </g>
        <text x="71.184px" y="122.412px" style="font-family:'Impact';font-stretch:condensed;font-size:8px;fill:#b30059;">CLIMAX</text>
        <g transform="matrix(8,0,0,8,105.602,169.412)">
        </g>
        <text x="60.398px" y="169.412px" style="font-family:'Impact';font-stretch:condensed;font-size:8px;fill:#b30059;">SUPER CLIMAX</text>
        <g id="MoanLv3">
            <circle cx="86.797" cy="92" r="14" style="fill:#ebebeb;"/>
            <path d="M86.797,78c7.727,-0 14,6.273 14,14c-0,7.727 -6.273,14 -14,14c-7.727,-0 -14,-6.273 -14,-14c-0,-7.727 6.273,-14 14,-14Zm-0,2.5c-6.347,-0 -11.5,5.153 -11.5,11.5c-0,6.347 5.153,11.5 11.5,11.5c6.347,-0 11.5,-5.153 11.5,-11.5c-0,-6.347 -5.153,-11.5 -11.5,-11.5Z" style="fill:#b30059;"/>
            <path d="M86.797,89.621c0.894,-1.5 2.684,-1.5 3.579,-0.75c0.894,0.75 0.894,2.25 -0,3.75c-0.627,1.125 -2.237,2.25 -3.579,3c-1.342,-0.75 -2.953,-1.875 -3.579,-3c-0.895,-1.5 -0.895,-3 -0,-3.75c0.894,-0.75 2.684,-0.75 3.579,0.75Z" style="fill:#b30059;"/>
            <path d="M94.363,86.074c0.698,-1.17 2.095,-1.17 2.793,-0.585c0.698,0.585 0.698,1.756 -0,2.926c-0.489,0.878 -1.746,1.756 -2.793,2.341c-1.047,-0.585 -2.304,-1.463 -2.793,-2.341c-0.698,-1.17 -0.698,-2.341 0,-2.926c0.699,-0.585 2.095,-0.585 2.793,0.585Z" style="fill:#b30059;fill-opacity:0.8;"/>
            <path d="M86.797,79.923c0.698,-1.171 2.094,-1.171 2.792,-0.586c0.699,0.586 0.699,1.756 0,2.927c-0.488,0.878 -1.745,1.755 -2.792,2.341c-1.048,-0.586 -2.304,-1.463 -2.793,-2.341c-0.698,-1.171 -0.698,-2.341 -0,-2.927c0.698,-0.585 2.094,-0.585 2.793,0.586Z" style="fill:#b30059;fill-opacity:0.8;"/>
            <path d="M90.113,92.97c0.698,-1.171 2.095,-1.171 2.793,-0.586c0.698,0.586 0.698,1.756 -0,2.927c-0.489,0.878 -1.746,1.755 -2.793,2.341c-1.047,-0.586 -2.304,-1.463 -2.793,-2.341c-0.698,-1.171 -0.698,-2.341 0,-2.927c0.699,-0.585 2.095,-0.585 2.793,0.586Z" style="fill:#b30059;fill-opacity:0.8;"/>
            <path d="M82.547,93.765c0.698,-1.17 2.094,-1.17 2.792,-0.585c0.699,0.585 0.699,1.756 0,2.926c-0.488,0.878 -1.745,1.756 -2.792,2.341c-1.048,-0.585 -2.304,-1.463 -2.793,-2.341c-0.698,-1.17 -0.698,-2.341 -0,-2.926c0.698,-0.585 2.094,-0.585 2.793,0.585Z" style="fill:#b30059;fill-opacity:0.8;"/>
            <path d="M79.459,85.634c0.439,-0.686 1.318,-0.686 1.758,-0.343c0.44,0.343 0.44,1.029 0,1.715c-0.308,0.515 -1.099,1.03 -1.758,1.373c-0.66,-0.343 -1.451,-0.858 -1.758,-1.373c-0.44,-0.686 -0.44,-1.372 -0,-1.715c0.439,-0.343 1.318,-0.343 1.758,0.343Z" style="fill:#b30059;fill-opacity:0.5;"/>
            <path d="M79.23,99.016c0.44,-0.687 1.319,-0.687 1.758,-0.344c0.44,0.344 0.44,1.03 0,1.716c-0.307,0.514 -1.098,1.029 -1.758,1.372c-0.659,-0.343 -1.45,-0.858 -1.758,-1.372c-0.439,-0.686 -0.439,-1.372 0,-1.716c0.44,-0.343 1.319,-0.343 1.758,0.344Z" style="fill:#b30059;fill-opacity:0.5;"/>
            <path d="M86.797,100.172c0.439,-0.686 1.318,-0.686 1.758,-0.343c0.439,0.343 0.439,1.029 -0,1.715c-0.308,0.515 -1.099,1.03 -1.758,1.373c-0.66,-0.343 -1.451,-0.858 -1.759,-1.373c-0.439,-0.686 -0.439,-1.372 0,-1.715c0.44,-0.343 1.319,-0.343 1.759,0.343Z" style="fill:#b30059;fill-opacity:0.5;"/>
            <path d="M95.363,98.516c0.44,-0.687 1.319,-0.687 1.758,-0.344c0.44,0.344 0.44,1.03 0,1.716c-0.307,0.514 -1.099,1.029 -1.758,1.372c-0.659,-0.343 -1.45,-0.858 -1.758,-1.372c-0.44,-0.686 -0.44,-1.372 -0,-1.716c0.439,-0.343 1.319,-0.343 1.758,0.344Z" style="fill:#b30059;fill-opacity:0.5;"/>
        </g>
        <g id="MoanLv2">
            <circle cx="54.797" cy="92" r="14" style="fill:#ebebeb;"/>
            <path d="M54.797,78c7.727,-0 14,6.273 14,14c-0,7.727 -6.273,14 -14,14c-7.727,-0 -14,-6.273 -14,-14c-0,-7.727 6.273,-14 14,-14Zm-0,2.5c-6.347,-0 -11.5,5.153 -11.5,11.5c-0,6.347 5.153,11.5 11.5,11.5c6.347,-0 11.5,-5.153 11.5,-11.5c-0,-6.347 -5.153,-11.5 -11.5,-11.5Z" style="fill:#b30059;"/>
            <path d="M54.797,89.621c0.894,-1.5 2.684,-1.5 3.579,-0.75c0.894,0.75 0.894,2.25 -0,3.75c-0.627,1.125 -2.237,2.25 -3.579,3c-1.342,-0.75 -2.953,-1.875 -3.579,-3c-0.895,-1.5 -0.895,-3 -0,-3.75c0.894,-0.75 2.684,-0.75 3.579,0.75Z" style="fill:#b30059;"/>
            <path d="M62.363,86.074c0.698,-1.17 2.095,-1.17 2.793,-0.585c0.698,0.585 0.698,1.756 -0,2.926c-0.489,0.878 -1.746,1.756 -2.793,2.341c-1.047,-0.585 -2.304,-1.463 -2.793,-2.341c-0.698,-1.17 -0.698,-2.341 0,-2.926c0.699,-0.585 2.095,-0.585 2.793,0.585Z" style="fill:#b30059;fill-opacity:0.8;"/>
            <path d="M47.459,85.634c0.439,-0.686 1.318,-0.686 1.758,-0.343c0.44,0.343 0.44,1.029 0,1.715c-0.308,0.515 -1.099,1.03 -1.758,1.373c-0.66,-0.343 -1.451,-0.858 -1.758,-1.373c-0.44,-0.686 -0.44,-1.372 -0,-1.715c0.439,-0.343 1.318,-0.343 1.758,0.343Z" style="fill:#b30059;fill-opacity:0.5;"/>
        </g>
        <g id="MoanLv1">
            <circle cx="22.797" cy="92" r="14" style="fill:#ebebeb;"/>
            <path d="M22.797,78c7.727,-0 14,6.273 14,14c-0,7.727 -6.273,14 -14,14c-7.727,-0 -14,-6.273 -14,-14c-0,-7.727 6.273,-14 14,-14Zm-0,2.5c-6.347,-0 -11.5,5.153 -11.5,11.5c-0,6.347 5.153,11.5 11.5,11.5c6.347,-0 11.5,-5.153 11.5,-11.5c-0,-6.347 -5.153,-11.5 -11.5,-11.5Z" style="fill:#b30059;"/>
            <path d="M22.797,89.621c0.894,-1.5 2.684,-1.5 3.579,-0.75c0.894,0.75 0.894,2.25 -0,3.75c-0.627,1.125 -2.237,2.25 -3.579,3c-1.342,-0.75 -2.953,-1.875 -3.579,-3c-0.895,-1.5 -0.895,-3 -0,-3.75c0.894,-0.75 2.684,-0.75 3.579,0.75Z" style="fill:#b30059;"/>
            <path d="M22.797,89.621c0.894,-1.5 2.684,-1.5 3.579,-0.75c0.894,0.75 0.894,2.25 -0,3.75c-0.627,1.125 -2.237,2.25 -3.579,3c-1.342,-0.75 -2.953,-1.875 -3.579,-3c-0.895,-1.5 -0.895,-3 -0,-3.75c0.894,-0.75 2.684,-0.75 3.579,0.75Zm-1.009,2.288c0.277,0.285 0.632,0.554 1.009,0.803c0.377,-0.249 0.732,-0.518 1.008,-0.803c-0.313,0.138 -0.655,0.212 -1.008,0.212c-0.353,0 -0.696,-0.074 -1.009,-0.212Z" style="fill:#b30059;"/>
        </g>
        <g id="VolumeMoanDown">
            <path d="M116.022,102.75l-8.225,-10.575l16.45,-0l-8.225,10.575Z" style="fill:#ebebeb;"/>
            <path d="M116.022,102.75l-8.225,-10.575l16.45,-0l-8.225,10.575Zm-0,-2.443c-0,-0 5.158,-6.632 5.158,-6.632l-10.316,0l5.158,6.632Z" style="fill:#b30059;"/>
        </g>
        <g id="VolumeMoanUp">
            <path d="M116.522,79.25l8.225,10.575l-16.45,-0l8.225,-10.575Z" style="fill:#ebebeb;"/>
            <path d="M116.522,79.25l8.225,10.575l-16.45,-0l8.225,-10.575Zm-0,2.443c-0,0 -5.158,6.632 -5.158,6.632l10.316,-0l-5.158,-6.632Z" style="fill:#b30059;"/>
        </g>
        <g transform="matrix(8,0,0,8,92.25,70.9121)">
        </g>
        <text x="73.75px" y="70.912px" style="font-family:'Impact';font-stretch:condensed;font-size:8px;fill:#b30059;">MOAN</text>
        <g transform="matrix(9,0,0,9,159.832,94.0574)">
        </g>
        <text x="131.668px" y="94.057px" style="font-family:'Impact';font-stretch:condensed;font-size:9px;fill:#b30059;">VOLUME</text>
        <g id="ArousalLv3">
            <circle cx="86.797" cy="40.5" r="14" style="fill:#ebebeb;"/>
            <path d="M86.797,26.5c7.727,0 14,6.273 14,14c-0,7.727 -6.273,14 -14,14c-7.727,0 -14,-6.273 -14,-14c-0,-7.727 6.273,-14 14,-14Zm-0,2.5c-6.347,0 -11.5,5.153 -11.5,11.5c-0,6.347 5.153,11.5 11.5,11.5c6.347,0 11.5,-5.153 11.5,-11.5c-0,-6.347 -5.153,-11.5 -11.5,-11.5Z" style="fill:#b30059;"/>
            <path d="M86.797,38.121c0.894,-1.5 2.684,-1.5 3.579,-0.75c0.894,0.75 0.894,2.25 -0,3.75c-0.627,1.125 -2.237,2.25 -3.579,3c-1.342,-0.75 -2.953,-1.875 -3.579,-3c-0.895,-1.5 -0.895,-3 -0,-3.75c0.894,-0.75 2.684,-0.75 3.579,0.75Z" style="fill:#b30059;"/>
            <path d="M94.363,34.574c0.698,-1.17 2.095,-1.17 2.793,-0.585c0.698,0.585 0.698,1.756 -0,2.926c-0.489,0.878 -1.746,1.756 -2.793,2.341c-1.047,-0.585 -2.304,-1.463 -2.793,-2.341c-0.698,-1.17 -0.698,-2.341 0,-2.926c0.699,-0.585 2.095,-0.585 2.793,0.585Z" style="fill:#b30059;fill-opacity:0.8;"/>
            <path d="M86.797,28.423c0.698,-1.171 2.094,-1.171 2.792,-0.586c0.699,0.586 0.699,1.756 0,2.927c-0.488,0.878 -1.745,1.755 -2.792,2.341c-1.048,-0.586 -2.304,-1.463 -2.793,-2.341c-0.698,-1.171 -0.698,-2.341 -0,-2.927c0.698,-0.585 2.094,-0.585 2.793,0.586Z" style="fill:#b30059;fill-opacity:0.8;"/>
            <path d="M90.113,41.47c0.698,-1.171 2.095,-1.171 2.793,-0.586c0.698,0.586 0.698,1.756 -0,2.927c-0.489,0.878 -1.746,1.755 -2.793,2.341c-1.047,-0.586 -2.304,-1.463 -2.793,-2.341c-0.698,-1.171 -0.698,-2.341 0,-2.927c0.699,-0.585 2.095,-0.585 2.793,0.586Z" style="fill:#b30059;fill-opacity:0.8;"/>
            <path d="M82.547,42.265c0.698,-1.17 2.094,-1.17 2.792,-0.585c0.699,0.585 0.699,1.756 0,2.926c-0.488,0.878 -1.745,1.756 -2.792,2.341c-1.048,-0.585 -2.304,-1.463 -2.793,-2.341c-0.698,-1.17 -0.698,-2.341 -0,-2.926c0.698,-0.585 2.094,-0.585 2.793,0.585Z" style="fill:#b30059;fill-opacity:0.8;"/>
            <path d="M79.459,34.134c0.439,-0.686 1.318,-0.686 1.758,-0.343c0.44,0.343 0.44,1.029 0,1.715c-0.308,0.515 -1.099,1.03 -1.758,1.373c-0.66,-0.343 -1.451,-0.858 -1.758,-1.373c-0.44,-0.686 -0.44,-1.372 -0,-1.715c0.439,-0.343 1.318,-0.343 1.758,0.343Z" style="fill:#b30059;fill-opacity:0.5;"/>
            <path d="M79.23,47.516c0.44,-0.687 1.319,-0.687 1.758,-0.344c0.44,0.344 0.44,1.03 0,1.716c-0.307,0.514 -1.098,1.029 -1.758,1.372c-0.659,-0.343 -1.45,-0.858 -1.758,-1.372c-0.439,-0.686 -0.439,-1.372 0,-1.716c0.44,-0.343 1.319,-0.343 1.758,0.344Z" style="fill:#b30059;fill-opacity:0.5;"/>
            <path d="M86.797,48.672c0.439,-0.686 1.318,-0.686 1.758,-0.343c0.439,0.343 0.439,1.029 -0,1.715c-0.308,0.515 -1.099,1.03 -1.758,1.373c-0.66,-0.343 -1.451,-0.858 -1.759,-1.373c-0.439,-0.686 -0.439,-1.372 0,-1.715c0.44,-0.343 1.319,-0.343 1.759,0.343Z" style="fill:#b30059;fill-opacity:0.5;"/>
            <path d="M95.363,47.016c0.44,-0.687 1.319,-0.687 1.758,-0.344c0.44,0.344 0.44,1.03 0,1.716c-0.307,0.514 -1.099,1.029 -1.758,1.372c-0.659,-0.343 -1.45,-0.858 -1.758,-1.372c-0.44,-0.686 -0.44,-1.372 -0,-1.716c0.439,-0.343 1.319,-0.343 1.758,0.344Z" style="fill:#b30059;fill-opacity:0.5;"/>
        </g>
        <g id="ArousalLv2">
            <circle cx="54.797" cy="40.5" r="14" style="fill:#ebebeb;"/>
            <path d="M54.797,26.5c7.727,0 14,6.273 14,14c-0,7.727 -6.273,14 -14,14c-7.727,0 -14,-6.273 -14,-14c-0,-7.727 6.273,-14 14,-14Zm-0,2.5c-6.347,0 -11.5,5.153 -11.5,11.5c-0,6.347 5.153,11.5 11.5,11.5c6.347,0 11.5,-5.153 11.5,-11.5c-0,-6.347 -5.153,-11.5 -11.5,-11.5Z" style="fill:#b30059;"/>
            <path d="M54.797,38.121c0.894,-1.5 2.684,-1.5 3.579,-0.75c0.894,0.75 0.894,2.25 -0,3.75c-0.627,1.125 -2.237,2.25 -3.579,3c-1.342,-0.75 -2.953,-1.875 -3.579,-3c-0.895,-1.5 -0.895,-3 -0,-3.75c0.894,-0.75 2.684,-0.75 3.579,0.75Z" style="fill:#b30059;"/>
            <path d="M62.363,34.574c0.698,-1.17 2.095,-1.17 2.793,-0.585c0.698,0.585 0.698,1.756 -0,2.926c-0.489,0.878 -1.746,1.756 -2.793,2.341c-1.047,-0.585 -2.304,-1.463 -2.793,-2.341c-0.698,-1.17 -0.698,-2.341 0,-2.926c0.699,-0.585 2.095,-0.585 2.793,0.585Z" style="fill:#b30059;fill-opacity:0.8;"/>
            <path d="M47.459,34.134c0.439,-0.686 1.318,-0.686 1.758,-0.343c0.44,0.343 0.44,1.029 0,1.715c-0.308,0.515 -1.099,1.03 -1.758,1.373c-0.66,-0.343 -1.451,-0.858 -1.758,-1.373c-0.44,-0.686 -0.44,-1.372 -0,-1.715c0.439,-0.343 1.318,-0.343 1.758,0.343Z" style="fill:#b30059;fill-opacity:0.5;"/>
        </g>
        <g id="ArousalLv1">
            <circle cx="22.297" cy="40.5" r="14" style="fill:#ebebeb;"/>
            <path d="M22.297,26.5c7.727,0 14,6.273 14,14c-0,7.727 -6.273,14 -14,14c-7.727,0 -14,-6.273 -14,-14c-0,-7.727 6.273,-14 14,-14Zm-0,2.5c-6.347,0 -11.5,5.153 -11.5,11.5c-0,6.347 5.153,11.5 11.5,11.5c6.347,0 11.5,-5.153 11.5,-11.5c-0,-6.347 -5.153,-11.5 -11.5,-11.5Z" style="fill:#b30059;"/>
            <path d="M22.297,38.121c0.894,-1.5 2.684,-1.5 3.579,-0.75c0.894,0.75 0.894,2.25 -0,3.75c-0.627,1.125 -2.237,2.25 -3.579,3c-1.342,-0.75 -2.953,-1.875 -3.579,-3c-0.895,-1.5 -0.895,-3 -0,-3.75c0.894,-0.75 2.684,-0.75 3.579,0.75Z" style="fill:#b30059;"/>
            <path d="M22.297,38.121c0.894,-1.5 2.684,-1.5 3.579,-0.75c0.894,0.75 0.894,2.25 -0,3.75c-0.627,1.125 -2.237,2.25 -3.579,3c-1.342,-0.75 -2.953,-1.875 -3.579,-3c-0.895,-1.5 -0.895,-3 -0,-3.75c0.894,-0.75 2.684,-0.75 3.579,0.75Zm-1.009,2.288c0.277,0.285 0.632,0.554 1.009,0.803c0.377,-0.249 0.732,-0.518 1.008,-0.803c-0.313,0.138 -0.655,0.212 -1.008,0.212c-0.353,0 -0.696,-0.074 -1.009,-0.212Z" style="fill:#b30059;"/>
        </g>
        <g id="VolumeArousalDown">
            <path d="M116.522,51.25l-8.225,-10.575l16.45,0l-8.225,10.575Z" style="fill:#ebebeb;"/>
            <path d="M116.522,51.25l-8.225,-10.575l16.45,0l-8.225,10.575Zm-0,-2.443c-0,-0 5.158,-6.632 5.158,-6.632l-10.316,0l5.158,6.632Z" style="fill:#b30059;"/>
        </g>
        <g id="VolumeArousalUp">
            <path d="M116.522,27.75l8.225,10.575l-16.45,-0l8.225,-10.575Z" style="fill:#ebebeb;"/>
            <path d="M116.522,27.75l8.225,10.575l-16.45,-0l8.225,-10.575Zm-0,2.443c-0,0 -5.158,6.632 -5.158,6.632l10.316,-0l-5.158,-6.632Z" style="fill:#b30059;"/>
        </g>
        <g transform="matrix(8,0,0,8,106.346,19.4121)">
        </g>
        <text x="59.654px" y="19.412px" style="font-family:'Impact';font-stretch:condensed;font-size:8px;fill:#b30059;">AROUSAL LEVEL</text>
        <g transform="matrix(9,0,0,9,159.832,42.5574)">
        </g>
        <text x="131.668px" y="42.557px" style="font-family:'Impact';font-stretch:condensed;font-size:9px;fill:#b30059;">VOLUME</text>
        <g id="GetUp">
            <circle cx="145.5" cy="192.25" r="14" style="fill:#ebebeb;"/>
            <path d="M145.5,178.25c7.727,0 14,6.273 14,14c0,7.727 -6.273,14 -14,14c-7.727,0 -14,-6.273 -14,-14c0,-7.727 6.273,-14 14,-14Zm0,2.5c-6.347,0 -11.5,5.153 -11.5,11.5c0,6.347 5.153,11.5 11.5,11.5c6.347,0 11.5,-5.153 11.5,-11.5c0,-6.347 -5.153,-11.5 -11.5,-11.5Z"/>
            <g transform="matrix(0.5,0,0,0.5,-104.75,121.5)">
                <text x="487.769px" y="136.615px" style="font-family:'Impact';font-stretch:condensed;font-size:18px;fill:#b30059;">GET</text>
                <g transform="matrix(18,0,0,18,513.956,160.615)">
                </g>
                <text x="487.044px" y="160.615px" style="font-family:'Impact';font-stretch:condensed;font-size:18px;fill:#b30059;">UP !</text>
            </g>
        </g>
        <g id="Control1" serif:id="Control">
            <circle cx="145.5" cy="227.75" r="14" style="fill:#ebebeb;"/>
            <path d="M145.5,213.75c7.727,0 14,6.273 14,14c0,7.727 -6.273,14 -14,14c-7.727,0 -14,-6.273 -14,-14c0,-7.727 6.273,-14 14,-14Zm0,2.5c-6.347,0 -11.5,5.153 -11.5,11.5c0,6.347 5.153,11.5 11.5,11.5c6.347,0 11.5,-5.153 11.5,-11.5c0,-6.347 -5.153,-11.5 -11.5,-11.5Z"/>
            <rect x="142.25" y="220.25" width="6.5" height="6.5" style="fill:#b30059;fill-opacity:0.5;"/>
            <path d="M148.75,220.25l-0,6.5l-6.5,0l-0,-6.5l6.5,0Zm-1,1c-0,0 -4.5,0 -4.5,0c0,0 0,4.5 0,4.5c0,0 4.5,0 4.5,-0l0,-4.5Z" style="fill:#b30059;"/>
            <rect x="142.25" y="226.75" width="6.5" height="6.5" style="fill:#b30059;fill-opacity:0.5;"/>
            <path d="M148.75,226.75l-0,6.5l-6.5,0l-0,-6.5l6.5,0Zm-1,1c-0,0 -4.5,0 -4.5,0c0,0 0,4.5 0,4.5c0,0 4.5,0 4.5,-0l0,-4.5Z" style="fill:#b30059;"/>
            <rect x="135.75" y="226.75" width="6.5" height="6.5" style="fill:#b30059;fill-opacity:0.5;"/>
            <path d="M142.25,226.75l-0,6.5l-6.5,0l-0,-6.5l6.5,0Zm-1,1c-0,0 -4.5,0 -4.5,0c0,0 0,4.5 0,4.5c0,0 4.5,0 4.5,-0l0,-4.5Z" style="fill:#b30059;"/>
            <rect x="148.75" y="226.75" width="6.5" height="6.5" style="fill:#b30059;fill-opacity:0.5;"/>
            <path d="M155.25,226.75l-0,6.5l-6.5,0l-0,-6.5l6.5,0Zm-1,1c-0,0 -4.5,0 -4.5,0c0,0 0,4.5 0,4.5c0,0 4.5,0 4.5,-0l0,-4.5Z" style="fill:#b30059;"/>
        </g>
        <g id="Unlock">
            <circle cx="145.5" cy="263.25" r="14" style="fill:#ebebeb;"/>
            <path d="M145.5,249.25c7.727,0 14,6.273 14,14c0,7.727 -6.273,14 -14,14c-7.727,0 -14,-6.273 -14,-14c0,-7.727 6.273,-14 14,-14Zm0,2.5c-6.347,0 -11.5,5.153 -11.5,11.5c0,6.347 5.153,11.5 11.5,11.5c6.347,0 11.5,-5.153 11.5,-11.5c0,-6.347 -5.153,-11.5 -11.5,-11.5Z"/>
            <g transform="matrix(5,0,0,5,153.901,270.101)">
            </g>
            <text x="137.099px" y="270.101px" style="font-family:'Impact';font-stretch:condensed;font-size:5px;fill:#b30059;">UNLOCK!</text>
            <g transform="matrix(10,0,0,10,150.424,262.328)">
            </g>
            <text x="140.576px" y="262.328px" style="font-family:'Impact';font-stretch:condensed;font-size:10px;fill:#b30059;">PA</text>
        </g>
    </g>
    <g id="Buttons">
        <circle id="Button_ModeControl" cx="242.25" cy="15.75" r="5.75"/>
        <circle id="Button_ModeAdjust" cx="303.25" cy="15.75" r="5.75"/>
        <circle id="Button_PermsAskPS2" cx="30.047" cy="301.25" r="5.75"/>
        <circle id="Button_PermsStopPS2" cx="96.273" cy="301.25" r="5.75"/>
        <circle id="Buttons_PermAllPS2" cx="157.5" cy="301.25" r="5.75"/>
        <circle id="Button_PermsAskPC" cx="30.047" cy="335.75" r="5.75"/>
        <circle id="Button_PermsStopPC" cx="96.273" cy="335.75" r="5.75"/>
        <circle id="Button_PermAllPC" cx="157.5" cy="335.75" r="5.75"/>
        <circle id="Button_UnLock" cx="145.5" cy="263.25" r="14"/>
        <circle id="Button_Adjust" cx="145.5" cy="227.75" r="14"/>
        <circle id="Button_GetUp" cx="145.5" cy="192.25" r="14"/>
        <circle id="Button_ClimaxSuperLv1" cx="22.797" cy="188.5" r="14"/>
        <circle id="Button_ClimaxSuperLv2" cx="54.797" cy="188.5" r="14"/>
        <circle id="Button_ClimaxSuperLv3" cx="86.797" cy="188.5" r="14"/>
        <circle id="Button_ClimaxLv1" cx="22.797" cy="143.5" r="14"/>
        <circle id="Button_ClimaxLv2" cx="54.797" cy="143.5" r="14"/>
        <circle id="Button_ClimaxLv3" cx="86.797" cy="143.5" r="14"/>
        <circle id="Button_MoanLv1" cx="22.797" cy="92" r="14"/>
        <circle id="Button_MoanLv2" cx="54.797" cy="92" r="14"/>
        <circle id="Button_MoanLv3" cx="86.797" cy="92" r="14"/>
        <circle id="Button_ArousalLv1" cx="22.797" cy="40.5" r="14"/>
        <circle id="Button_ArousalLv2" cx="54.797" cy="40.5" r="14"/>
        <circle id="Button_ArousalLv3" cx="86.797" cy="40.5" r="14"/>
        <path id="Button_SoundsWet" d="M122.5,263.3l0,6.9c0,1.269 -1.031,2.3 -2.3,2.3l-6.967,0c-1.269,0 -2.3,-1.031 -2.3,-2.3l0,-6.9c0,-1.269 1.031,-2.3 2.3,-2.3l6.967,0c1.269,0 2.3,1.031 2.3,2.3Z"/>
        <path id="Button_SoundsOrgasm" d="M122.5,249.3l0,6.9c0,1.269 -1.031,2.3 -2.3,2.3l-6.967,0c-1.269,0 -2.3,-1.031 -2.3,-2.3l0,-6.9c0,-1.269 1.031,-2.3 2.3,-2.3l6.967,0c1.269,0 2.3,1.031 2.3,2.3Z"/>
        <path id="Button_FreezeArousal" d="M122.5,223.8l0,6.9c0,1.269 -1.031,2.3 -2.3,2.3l-6.967,0c-1.269,0 -2.3,-1.031 -2.3,-2.3l0,-6.9c0,-1.269 1.031,-2.3 2.3,-2.3l6.967,0c1.269,0 2.3,1.031 2.3,2.3Z"/>
        <path id="Button_InBedMode" d="M122.367,209.8l-0,6.9c-0,1.269 -1.031,2.3 -2.3,2.3l-6.967,-0c-1.269,-0 -2.3,-1.031 -2.3,-2.3l0,-6.9c0,-1.269 1.031,-2.3 2.3,-2.3l6.967,0c1.269,0 2.3,1.031 2.3,2.3Z"/>
        <path id="Button_CoupleAdjustment" d="M296.295,26.3l-0,6.9c-0,1.269 -1.031,2.3 -2.3,2.3l-6.967,0c-1.269,0 -2.3,-1.031 -2.3,-2.3l0,-6.9c0,-1.269 1.031,-2.3 2.3,-2.3l6.967,0c1.269,0 2.3,1.031 2.3,2.3Z"/>
        <path id="Button_ForcePositionSwitch" d="M296.295,40.3l-0,6.9c-0,1.269 -1.031,2.3 -2.3,2.3l-6.967,0c-1.269,0 -2.3,-1.031 -2.3,-2.3l0,-6.9c0,-1.269 1.031,-2.3 2.3,-2.3l6.967,0c1.269,0 2.3,1.031 2.3,2.3Z"/>
        <path id="Button_W" d="M207.795,58l-0,10.5c-0,1.932 -1.568,3.5 -3.5,3.5l-10.567,0c-1.931,0 -3.5,-1.568 -3.5,-3.5l0,-10.5c0,-1.932 1.569,-3.5 3.5,-3.5l10.567,0c1.932,0 3.5,1.568 3.5,3.5Z"/>
        <path id="Button_S" d="M207.795,78l-0,10.5c-0,1.932 -1.568,3.5 -3.5,3.5l-10.567,0c-1.931,0 -3.5,-1.568 -3.5,-3.5l0,-10.5c0,-1.932 1.569,-3.5 3.5,-3.5l10.567,0c1.932,0 3.5,1.568 3.5,3.5Z"/>
        <path id="Button_A" d="M197.5,98l0,10.5c0,1.932 -1.568,3.5 -3.5,3.5l-10.567,0c-1.931,0 -3.5,-1.568 -3.5,-3.5l0,-10.5c0,-1.932 1.569,-3.5 3.5,-3.5l10.567,0c1.932,0 3.5,1.568 3.5,3.5Z"/>
        <path id="Button_D" d="M217.5,98l0,10.5c0,1.932 -1.568,3.5 -3.5,3.5l-10.567,0c-1.931,0 -3.5,-1.568 -3.5,-3.5l0,-10.5c0,-1.932 1.569,-3.5 3.5,-3.5l10.567,0c1.932,0 3.5,1.568 3.5,3.5Z"/>
        <path id="Button_E" d="M207.75,118l0,10.5c0,1.932 -1.568,3.5 -3.5,3.5l-10.567,0c-1.931,0 -3.5,-1.568 -3.5,-3.5l0,-10.5c0,-1.932 1.569,-3.5 3.5,-3.5l10.567,0c1.932,0 3.5,1.568 3.5,3.5Z"/>
        <path id="Button_C" d="M207.75,138l0,10.5c0,1.932 -1.568,3.5 -3.5,3.5l-10.567,0c-1.931,0 -3.5,-1.568 -3.5,-3.5l0,-10.5c0,-1.932 1.569,-3.5 3.5,-3.5l10.567,0c1.932,0 3.5,1.568 3.5,3.5Z"/>
        <path id="Button_Click" d="M207.75,158l0,10.5c0,1.932 -1.568,3.5 -3.5,3.5l-10.567,0c-1.931,0 -3.5,-1.568 -3.5,-3.5l0,-10.5c0,-1.932 1.569,-3.5 3.5,-3.5l10.567,0c1.932,0 3.5,1.568 3.5,3.5Z"/>
        <path id="Button_RR" d="M207.75,178l0,10.5c0,1.932 -1.568,3.5 -3.5,3.5l-10.567,0c-1.931,0 -3.5,-1.568 -3.5,-3.5l0,-10.5c0,-1.932 1.569,-3.5 3.5,-3.5l10.567,0c1.932,0 3.5,1.568 3.5,3.5Z"/>
        <path id="Button_RL" d="M227.75,178l0,10.5c0,1.932 -1.568,3.5 -3.5,3.5l-10.567,0c-1.931,0 -3.5,-1.568 -3.5,-3.5l0,-10.5c0,-1.932 1.569,-3.5 3.5,-3.5l10.567,0c1.932,0 3.5,1.568 3.5,3.5Z"/>
        <path id="Button_ChoosePos" d="M235.5,198.5l0,7.5c0,1.38 -1.12,2.5 -2.5,2.5l-40.125,0c-1.38,0 -2.5,-1.12 -2.5,-2.5l0,-7.5c0,-1.38 1.12,-2.5 2.5,-2.5l40.125,0c1.38,0 2.5,1.12 2.5,2.5Z"/>
        <path id="Button_Resync" d="M235.5,213.5l0,7.5c0,1.38 -1.12,2.5 -2.5,2.5l-40.125,0c-1.38,0 -2.5,-1.12 -2.5,-2.5l0,-7.5c0,-1.38 1.12,-2.5 2.5,-2.5l40.125,0c1.38,0 2.5,1.12 2.5,2.5Z"/>
        <path id="Button_Swap" d="M283,198.5l0,7.5c0,1.38 -1.12,2.5 -2.5,2.5l-40.125,0c-1.38,0 -2.5,-1.12 -2.5,-2.5l-0,-7.5c-0,-1.38 1.12,-2.5 2.5,-2.5l40.125,0c1.38,0 2.5,1.12 2.5,2.5Z"/>
        <path id="Button_MoveHere" d="M283,213.5l0,7.5c0,1.38 -1.12,2.5 -2.5,2.5l-40.125,0c-1.38,0 -2.5,-1.12 -2.5,-2.5l-0,-7.5c-0,-1.38 1.12,-2.5 2.5,-2.5l40.125,0c1.38,0 2.5,1.12 2.5,2.5Z"/>
        <path id="Button_Takeover" d="M330.5,198.5l0,7.5c0,1.38 -1.12,2.5 -2.5,2.5l-40.125,0c-1.38,0 -2.5,-1.12 -2.5,-2.5l-0,-7.5c-0,-1.38 1.12,-2.5 2.5,-2.5l40.125,0c1.38,0 2.5,1.12 2.5,2.5Z"/>
        <path id="Button_ReAlign" d="M330.5,213.5l0,7.5c0,1.38 -1.12,2.5 -2.5,2.5l-40.125,0c-1.38,0 -2.5,-1.12 -2.5,-2.5l-0,-7.5c-0,-1.38 1.12,-2.5 2.5,-2.5l40.125,0c1.38,0 2.5,1.12 2.5,2.5Z"/>
        <path id="Button_SelectCategory" d="M310.5,228.5l-0,7.5c-0,1.38 -1.12,2.5 -2.5,2.5l-95.125,0c-1.38,0 -2.5,-1.12 -2.5,-2.5l-0,-7.5c-0,-1.38 1.12,-2.5 2.5,-2.5l95.125,0c1.38,0 2.5,1.12 2.5,2.5Z"/>
        <path id="Button_VolumeArousalDown" d="M116.522,51.25l-8.225,-10.575l16.45,0l-8.225,10.575Z"/>
        <path id="Button_VolumeArousalUp" d="M116.522,27.75l8.225,10.575l-16.45,-0l8.225,-10.575Z"/>
        <path id="Button_VolumeMoanDown" d="M116.522,102.75l-8.225,-10.575l16.45,0l-8.225,10.575Z"/>
        <path id="Button_VolumeMoanUp" d="M116.522,79.25l8.225,10.575l-16.45,-0l8.225,-10.575Z"/>
        <path id="Button_VolumeClimaxDown" d="M116.522,177.75l-8.225,-10.606l16.45,0l-8.225,10.606Z"/>
        <path id="Button_VolumeClimaxUp" d="M116.522,154.219l8.225,10.606l-16.45,0l8.225,-10.606Z"/>
    </g>
</svg>
